<svg data-v-423bf9ae="" xmlns="http://www.w3.org/2000/svg" viewBox="0 0 303.86453923407413 60" class="font"><!----><!----><!----><g data-v-423bf9ae="" id="7759b198-93e9-4b2d-a05e-a27872493742" fill="black" transform="matrix(3.9840638863027666,0,0,3.9840638863027666,-3.1474108388617594,-13.266933391102576)"><path d="M1.50 11.09L1.50 9.50L1.54 7.29Q1.54 6.62 1.51 6.09Q1.49 5.56 1.39 5.37Q1.29 5.18 1.20 5.12Q1.10 5.07 1.00 5.03Q0.91 5.00 0.90 5.00L0.90 5.00Q0.79 4.97 0.79 4.63Q0.79 4.29 0.81 4.21L0.81 4.21Q3.19 3.68 4.41 3.68L4.41 3.68Q7.31 3.68 8.92 5.09L8.92 5.09Q10.27 6.26 10.27 8.39L10.27 8.39Q10.27 10.10 9.46 11.38Q8.65 12.65 7.22 13.31Q5.80 13.97 3.95 13.97L3.95 13.97Q2.94 13.97 2.06 13.80L2.06 13.80Q1.61 13.62 1.54 12.86L1.54 12.86Q1.50 12.27 1.50 11.09L1.50 11.09ZM3.60 6.47L3.60 6.88L3.53 11.04L3.53 11.50Q3.53 12.81 3.77 13.00L3.77 13.00Q4.01 13.04 4.29 13.04Q4.57 13.04 5.04 13.02Q5.52 13.00 6.05 12.73Q6.59 12.46 7.04 11.96Q7.49 11.46 7.76 10.63Q8.03 9.80 8.03 8.85Q8.03 7.90 7.81 7.20Q7.59 6.50 7.25 6.04Q6.90 5.58 6.45 5.27L6.45 5.27Q5.59 4.68 4.68 4.68Q3.77 4.68 3.43 4.77L3.43 4.77Q3.60 5.49 3.60 6.47L3.60 6.47ZM14.03 10.85Q14.23 11.86 14.90 12.48Q15.57 13.10 16.47 13.10Q17.36 13.10 18.27 12.33L18.27 12.33Q18.61 12.56 18.69 12.87L18.69 12.87Q18.06 13.60 16.83 13.91L16.83 13.91Q16.33 14.04 15.68 14.04Q15.03 14.04 14.33 13.81Q13.63 13.57 13.08 13.12Q12.53 12.67 12.21 11.93Q11.89 11.20 11.89 10.30Q11.89 9.41 12.22 8.68Q12.54 7.95 13.08 7.49L13.08 7.49Q14.21 6.51 15.67 6.51L15.67 6.51Q16.95 6.51 17.88 7.20L17.88 7.20Q18.33 7.54 18.60 8.08Q18.87 8.63 18.87 9.31L18.87 9.31Q18.87 10.48 18.10 10.54L18.10 10.54L14.03 10.85ZM17.04 9.11Q17.04 8.29 16.58 7.83Q16.13 7.38 15.40 7.38Q14.67 7.38 14.29 8.06Q13.92 8.75 13.92 9.97L13.92 9.97Q15.62 9.78 16.99 9.58L16.99 9.58Q17.04 9.33 17.04 9.11L17.04 9.11ZM25.98 6.37L25.98 6.37Q27.27 6.37 27.27 7.60L27.27 7.60Q27.27 8.55 26.27 10.21L26.27 10.21Q24.99 12.33 24.30 13.96L24.30 13.96Q24.06 14.05 23.75 14.05Q23.45 14.05 23.17 13.94Q22.88 13.82 22.77 13.68Q22.67 13.54 22.31 12.64Q21.95 11.74 21.56 10.77Q21.16 9.79 20.68 8.88Q20.19 7.97 19.87 7.77L19.87 7.77Q19.76 7.70 19.21 7.66L19.21 7.66Q19.20 7.60 19.19 7.54Q19.17 7.47 19.17 7.44L19.17 7.44Q19.15 7.29 19.17 7.18L19.17 7.18Q20.16 6.62 21.39 6.62L21.39 6.62Q21.62 6.62 21.72 6.63L21.72 6.63Q22.00 6.92 22.57 8.29Q23.13 9.65 23.95 12.30L23.95 12.30Q25.42 8.03 25.49 7.35L25.49 7.35Q25.51 7.18 25.51 6.96Q25.51 6.75 25.38 6.55L25.38 6.55Q25.38 6.49 25.58 6.43Q25.78 6.37 25.98 6.37ZM28.57 11.63L28.57 11.63Q28.73 11.60 29.03 11.60Q29.33 11.60 29.82 11.84L29.82 11.84Q29.81 11.89 29.81 12.04Q29.81 12.20 29.88 12.41Q29.96 12.63 30.11 12.82L30.11 12.82Q30.43 13.23 31.19 13.23Q31.94 13.23 32.17 12.72L32.17 12.72Q32.37 12.26 32.10 11.76L32.10 11.76Q31.90 11.39 31.04 11.05L31.04 11.05Q30.90 11.00 30.65 10.90L30.65 10.90Q28.38 10.09 28.35 8.55L28.35 8.55Q28.35 7.85 28.74 7.38L28.74 7.38Q29.48 6.48 31.23 6.48L31.23 6.48Q32.39 6.48 33.19 6.96Q33.98 7.44 33.98 8.13L33.98 8.13Q33.98 8.91 33.22 8.91L33.22 8.91Q32.68 8.91 32.46 8.79Q32.25 8.67 32.25 8.66L32.25 8.66Q32.25 8.62 32.25 8.59L32.25 8.59Q32.25 7.31 31.00 7.31L31.00 7.31Q30.57 7.31 30.32 7.53Q30.07 7.75 30.07 8.18Q30.07 8.61 30.38 8.89Q30.68 9.17 31.55 9.52Q32.42 9.86 32.67 9.99L32.67 9.99Q34.21 10.73 34.21 11.92L34.21 11.92Q34.21 12.94 33.34 13.49Q32.48 14.04 31.04 14.04L31.04 14.04Q30.09 14.04 29.61 13.88Q29.12 13.71 28.87 13.58Q28.62 13.44 28.46 13.29Q28.30 13.14 28.19 12.97L28.19 12.97Q27.90 12.54 28.02 12.10L28.02 12.10Q28.12 11.72 28.57 11.63ZM36.13 18.24L36.13 18.24Q36.27 16.88 36.27 13.52Q36.27 10.17 36.08 8.33L36.08 8.33Q36.04 7.62 35.31 7.56L35.31 7.56Q35.30 7.52 35.29 7.46Q35.28 7.40 35.27 7.37L35.27 7.37Q35.26 7.27 35.26 7.21Q35.26 7.14 35.27 7.08L35.27 7.08Q36.18 6.73 36.75 6.65Q37.32 6.58 37.59 6.58Q37.85 6.58 37.91 6.58L37.91 6.58Q38.07 6.82 38.12 7.46L38.12 7.46Q38.60 7.03 39.23 6.77Q39.86 6.52 40.41 6.52Q40.96 6.52 41.36 6.61Q41.77 6.69 42.16 6.92Q42.55 7.15 42.84 7.51L42.84 7.51Q43.54 8.40 43.54 10.05L43.54 10.05Q43.54 10.83 43.30 11.51Q43.05 12.19 42.65 12.65Q42.25 13.12 41.74 13.45L41.74 13.45Q40.75 14.08 39.76 14.08Q38.78 14.08 38.18 13.88L38.18 13.88Q38.18 15.18 38.15 18.28L38.15 18.28Q37.53 18.39 37.03 18.39Q36.54 18.39 36.13 18.24ZM38.15 8.19L38.15 8.19Q38.18 9.90 38.18 13.00L38.18 13.00Q38.60 13.16 39.15 13.16Q39.69 13.16 40.06 12.98Q40.43 12.81 40.75 12.47L40.75 12.47Q41.45 11.71 41.45 10.18L41.45 10.18Q41.45 8.60 40.80 8.05L40.80 8.05Q40.32 7.63 39.60 7.63Q38.89 7.63 38.15 8.19ZM50.42 12.32L50.42 12.32L50.48 9.71Q50.48 9.65 50.48 9.52Q50.48 9.39 50.48 9.26Q50.48 9.14 50.48 9.02Q50.48 8.91 50.46 8.80Q50.45 8.70 50.43 8.60Q50.42 8.50 50.38 8.43Q50.35 8.35 50.31 8.28Q50.26 8.22 50.20 8.17Q50.14 8.11 50.06 8.07L50.06 8.07Q49.90 8.00 49.54 8.00L49.54 8.00Q48.71 8.00 47.63 9.04L47.63 9.04Q47.63 10.32 47.59 13.80L47.59 13.80Q46.83 13.93 46.33 13.93Q45.84 13.93 45.49 13.80L45.49 13.80Q45.62 12.83 45.62 9.86Q45.62 6.90 45.56 5.08L45.56 5.08Q45.52 4.40 44.71 4.31L44.71 4.31Q44.70 4.27 44.69 4.18L44.69 4.18Q44.66 4.03 44.66 3.97L44.66 3.97Q44.66 3.89 44.67 3.83L44.67 3.83Q45.57 3.49 46.18 3.41Q46.80 3.33 47.07 3.33Q47.33 3.33 47.39 3.33L47.39 3.33Q47.56 3.53 47.60 4.29Q47.64 5.04 47.64 6.25Q47.64 7.46 47.63 8.02L47.63 8.02Q48.25 7.27 49.05 6.89Q49.86 6.51 50.67 6.51Q51.47 6.51 51.93 7.04Q52.38 7.57 52.45 8.50L52.45 8.50Q52.48 8.91 52.48 9.34Q52.48 9.77 52.40 10.75Q52.32 11.72 52.32 12.50L52.32 12.50Q52.32 12.67 52.58 12.77Q52.83 12.87 53.07 12.87Q53.31 12.87 53.40 12.84L53.40 12.84Q53.48 13.02 53.48 13.18Q53.48 13.33 53.47 13.38L53.47 13.38Q52.19 14.05 51.56 14.05Q50.93 14.05 50.67 13.62Q50.42 13.19 50.42 12.32ZM56.75 10.85Q56.95 11.86 57.62 12.48Q58.29 13.10 59.19 13.10Q60.08 13.10 60.99 12.33L60.99 12.33Q61.33 12.56 61.41 12.87L61.41 12.87Q60.78 13.60 59.55 13.91L59.55 13.91Q59.05 14.04 58.40 14.04Q57.74 14.04 57.05 13.81Q56.35 13.57 55.80 13.12Q55.25 12.67 54.93 11.93Q54.61 11.20 54.61 10.30Q54.61 9.41 54.93 8.68Q55.26 7.95 55.80 7.49L55.80 7.49Q56.93 6.51 58.39 6.51L58.39 6.51Q59.66 6.51 60.60 7.20L60.60 7.20Q61.05 7.54 61.32 8.08Q61.59 8.63 61.59 9.31L61.59 9.31Q61.59 10.48 60.82 10.54L60.82 10.54L56.75 10.85ZM59.75 9.11Q59.75 8.29 59.30 7.83Q58.85 7.38 58.12 7.38Q57.39 7.38 57.01 8.06Q56.64 8.75 56.64 9.97L56.64 9.97Q58.34 9.78 59.71 9.58L59.71 9.58Q59.75 9.33 59.75 9.11L59.75 9.11ZM67.51 9.30L67.51 9.21Q67.51 8.05 66.98 8.05L66.98 8.05Q66.59 8.05 66.23 8.27Q65.88 8.49 65.47 8.89L65.47 8.89Q65.47 9.57 65.43 13.82L65.43 13.82Q64.67 13.95 64.19 13.95Q63.70 13.95 63.36 13.82L63.36 13.82Q63.44 12.68 63.44 9.93L63.44 9.93L63.44 8.33Q63.44 7.81 63.08 7.71L63.08 7.71Q62.83 7.64 62.41 7.60L62.41 7.60Q62.36 7.40 62.36 7.29Q62.36 7.18 62.37 7.12L62.37 7.12Q63.36 6.57 64.80 6.57L64.80 6.57Q65.04 6.57 65.16 6.58L65.16 6.58Q65.36 6.92 65.40 7.29Q65.43 7.66 65.45 7.99L65.45 7.99Q66.37 6.88 67.00 6.64L67.00 6.64Q67.30 6.52 67.63 6.52L67.63 6.52Q68.32 6.52 68.73 6.90Q69.15 7.28 69.15 8.01L69.15 8.01Q69.15 8.57 68.74 8.95L68.74 8.95Q68.33 9.32 67.76 9.32L67.76 9.32Q67.63 9.32 67.51 9.30L67.51 9.30ZM72.21 10.85Q72.42 11.86 73.09 12.48Q73.76 13.10 74.66 13.10Q75.55 13.10 76.46 12.33L76.46 12.33Q76.80 12.56 76.88 12.87L76.88 12.87Q76.25 13.60 75.02 13.91L75.02 13.91Q74.52 14.04 73.87 14.04Q73.21 14.04 72.52 13.81Q71.82 13.57 71.27 13.12Q70.72 12.67 70.40 11.93Q70.08 11.20 70.08 10.30Q70.08 9.41 70.40 8.68Q70.73 7.95 71.27 7.49L71.27 7.49Q72.40 6.51 73.86 6.51L73.86 6.51Q75.13 6.51 76.07 7.20L76.07 7.20Q76.52 7.54 76.79 8.08Q77.06 8.63 77.06 9.31L77.06 9.31Q77.06 10.48 76.29 10.54L76.29 10.54L72.21 10.85ZM75.22 9.11Q75.22 8.29 74.77 7.83Q74.32 7.38 73.59 7.38Q72.86 7.38 72.48 8.06Q72.11 8.75 72.11 9.97L72.11 9.97Q73.81 9.78 75.18 9.58L75.18 9.58Q75.22 9.33 75.22 9.11L75.22 9.11Z"></path></g><!----><!----></svg>